<?xml version="1.0" encoding="UTF-8" standalone="no"?><!DOCTYPE svg PUBLIC "-//W3C//DTD SVG 1.1//EN" "http://www.w3.org/Graphics/SVG/1.1/DTD/svg11.dtd"><svg width="100%" height="100%" viewBox="0 0 2134 2134" version="1.1" xmlns="http://www.w3.org/2000/svg" xmlns:xlink="http://www.w3.org/1999/xlink" xml:space="preserve" xmlns:serif="http://www.serif.com/" style="fill-rule:evenodd;clip-rule:evenodd;stroke-linejoin:round;stroke-miterlimit:2;"><g><g id="Pentagram"><g><path d="M1066.67,2066.67c-267.109,-0 -518.234,-104.021 -707.109,-292.892c-188.87,-188.875 -292.891,-440 -292.891,-707.108c-0,-267.109 104.021,-518.234 292.891,-707.109c188.875,-188.87 440,-292.891 707.109,-292.891c267.108,-0 518.229,104.021 707.108,292.891c188.871,188.875 292.892,440 292.892,707.109c-0,267.108 -104.021,518.233 -292.892,707.108c-188.879,188.871 -440,292.892 -707.108,292.892Z" style="fill:#701cb5;fill-rule:nonzero;"/></g><path d="M1066.67,66.667l-0,2000c267.108,-0 518.229,-104.021 707.108,-292.892c188.871,-188.875 292.892,-440 292.892,-707.108c-0,-267.109 -104.021,-518.234 -292.892,-707.109c-188.879,-188.87 -440,-292.891 -707.108,-292.891Z" style="fill:#6d46f5;fill-rule:nonzero;"/><path d="M1718.59,1066.67l271.833,-470.834c11.167,-19.337 11.167,-43.162 0,-62.5c-11.167,-19.337 -31.796,-31.25 -54.125,-31.25l-543.671,0l-271.833,-470.833c-11.167,-19.337 -31.8,-31.25 -54.129,-31.25c-22.33,0 -42.963,11.913 -54.125,31.25l-271.838,470.833l-543.671,0c-22.329,0 -42.962,11.913 -54.125,31.25c-11.166,19.338 -11.166,43.163 0,62.5l271.838,470.834l-271.838,470.833c-11.166,19.338 -11.166,43.163 0,62.5c11.163,19.338 31.796,31.25 54.125,31.25l543.671,0l271.838,470.833c11.162,19.338 31.795,31.25 54.125,31.25c22.329,0 42.962,-11.912 54.125,-31.25l271.833,-470.833l543.671,0c22.329,0 42.962,-11.912 54.125,-31.25c11.162,-19.337 11.167,-43.162 -0,-62.5l-271.829,-470.833Zm109.454,-439.584l-181.625,314.584l-181.625,-314.584l363.25,0Zm-253.792,439.584l-253.796,439.583l-507.583,0l-253.796,-439.583l253.792,-439.584l507.587,0l253.796,439.584Zm-507.587,-879.167l181.625,314.583l-363.25,0l181.625,-314.583Zm-761.38,439.583l363.251,0l-181.626,314.584l-181.625,-314.584Zm0,879.167l181.625,-314.583l181.625,314.583l-363.25,0Zm761.38,439.583l-181.625,-314.583l363.25,0l-181.625,314.583Zm398.129,-439.583l181.625,-314.583l181.625,314.583l-363.25,0Z" style="fill:#6d46f5;fill-rule:nonzero;"/><g><path d="M1066.67,2133.33c-284.917,0 -552.779,-110.954 -754.25,-312.416c-201.463,-201.471 -312.417,-469.334 -312.417,-754.25c0,-284.917 110.954,-552.78 312.417,-754.25c201.471,-201.463 469.333,-312.417 754.25,-312.417c284.916,-0 552.779,110.954 754.25,312.417c201.462,201.47 312.416,469.333 312.416,754.25c0,284.916 -110.954,552.779 -312.416,754.25c-201.471,201.462 -469.334,312.416 -754.25,312.416Zm-0,-2008.33c-519.238,0 -941.667,422.429 -941.667,941.667c-0,519.237 422.429,941.666 941.667,941.666c519.237,0 941.666,-422.429 941.666,-941.666c0,-519.238 -422.429,-941.667 -941.666,-941.667Z" style="fill:#6d46f5;fill-rule:nonzero;"/></g><path d="M1820.92,312.417c-201.471,-201.463 -469.334,-312.417 -754.25,-312.417l-0,125c519.237,0 941.666,422.429 941.666,941.667c0,519.237 -422.429,941.666 -941.666,941.666l-0,125c284.916,0 552.779,-110.954 754.25,-312.416c201.462,-201.471 312.416,-469.334 312.416,-754.25c0,-284.917 -110.954,-552.78 -312.416,-754.25Z" style="fill:#701cb5;fill-rule:nonzero;"/><path d="M1120.79,2102.08l271.833,-470.833l543.671,0c22.329,0 42.962,-11.912 54.125,-31.25c11.162,-19.337 11.167,-43.162 -0,-62.5l-271.833,-470.833l271.833,-470.834c11.167,-19.337 11.167,-43.162 -0,-62.5c-11.167,-19.337 -31.796,-31.25 -54.125,-31.25l-543.667,0l-271.833,-470.833c-11.167,-19.337 -31.8,-31.25 -54.129,-31.25l-0,187.5l181.625,314.583l-181.625,0l-0,125l253.791,0l253.796,439.584l-253.796,439.583l-253.791,0l-0,125l181.625,0l-181.625,314.583l-0,187.5c22.329,0 42.962,-11.912 54.125,-31.25Zm344.004,-1475l363.25,0l-181.625,314.584l-181.625,-314.584Zm181.625,564.584l181.625,314.583l-363.25,-0l181.625,-314.583Z" style="fill:#701cb5;fill-rule:nonzero;"/></g><g id="Eye--open-" serif:id="Eye (open)"><ellipse cx="1066.67" cy="1066.67" rx="579.758" ry="250" style="fill:#f9f9f9;"/><path d="M1646.42,1066.67c-11.092,-10.209 -275.188,-250 -579.754,-250l-0,500c304.566,-0 568.662,-239.792 579.754,-250Z" style="fill:#e2dff4;fill-rule:nonzero;"/><g><path d="M1066.67,1316.67c-137.85,-0 -250,-112.15 -250,-250c-0,-137.85 112.15,-250 250,-250c137.85,-0 250,112.15 250,250c-0,137.85 -112.15,250 -250,250Z" style="fill:#0a789b;fill-rule:nonzero;"/></g><path d="M1316.67,1066.67c-0,-137.85 -112.15,-250 -250,-250l-0,500c137.85,-0 250,-112.15 250,-250Z" style="fill:#08475e;fill-rule:nonzero;"/><g><path d="M1066.67,1158.33c-68.925,0 -125,-56.075 -125,-125c-0,-68.925 56.075,-125 125,-125c68.925,0 125,56.075 125,125c-0,68.925 -56.075,125 -125,125Z" style="fill:#acceff;fill-rule:nonzero;"/></g><path d="M1191.67,1033.33c-0,-68.925 -56.075,-125 -125,-125l-0,250c68.925,0 125,-56.075 125,-125Z" style="fill:#989dec;fill-rule:nonzero;"/><path d="M1688.74,1020.68c-11.825,-10.879 -293.371,-266.508 -622.075,-266.508c-328.709,-0 -610.255,255.629 -622.079,266.508c-12.859,11.833 -20.175,28.512 -20.175,45.992c-0,17.479 7.316,34.154 20.175,45.991c11.825,10.88 293.37,266.509 622.079,266.509c328.704,-0 610.25,-255.63 622.075,-266.509c12.862,-11.833 20.179,-28.512 20.179,-45.991c-0,-17.48 -7.317,-34.155 -20.179,-45.992Zm-622.075,233.492c-201.621,-0 -389.8,-119.471 -480.6,-187.5c90.8,-68.025 278.979,-187.5 480.6,-187.5c201.616,-0 389.791,119.47 480.596,187.5c-90.813,68.033 -279,187.5 -480.596,187.5Z" style="fill:#6d46f5;fill-rule:nonzero;"/><path d="M1547.26,1066.67c-90.813,68.033 -279,187.5 -480.596,187.5l-0,125c328.704,-0 610.25,-255.629 622.075,-266.509c12.862,-11.833 20.179,-28.512 20.179,-45.991c-0,-17.479 -7.317,-34.154 -20.179,-45.992c-11.825,-10.879 -293.371,-266.508 -622.075,-266.508l-0,125c201.616,-0 389.791,119.471 480.596,187.5Z" style="fill:#701cb5;fill-rule:nonzero;"/></g></g></svg>